<?xml version="1.0" standalone="no"?>
<!DOCTYPE svg PUBLIC "-//W3C//DTD SVG 20010904//EN"
 "http://www.w3.org/TR/2001/REC-SVG-20010904/DTD/svg10.dtd">
<svg version="1.0" xmlns="http://www.w3.org/2000/svg"
 width="512.000000pt" height="512.000000pt" viewBox="0 0 512.000000 512.000000"
 preserveAspectRatio="xMidYMid meet">
<metadata>
Created by potrace 1.11, written by Peter Selinger 2001-2013
</metadata>
<g transform="translate(0.000000,512.000000) scale(0.100000,-0.100000)"
fill="#000000" stroke="none">
<path d="M2143 4047 c-34 -19 -89 -44 -123 -57 -108 -40 -186 -132 -205 -241
-8 -46 -28 -74 -62 -86 -15 -6 -49 -18 -76 -28 -61 -22 -162 -96 -181 -133 -9
-17 -13 -40 -11 -53 5 -27 39 -59 64 -60 39 -1 92 -9 101 -14 14 -9 12 -35 -7
-90 l-16 -48 28 -25 c24 -21 36 -23 79 -19 60 5 78 25 70 76 -3 20 -7 41 -9
48 -6 19 22 42 45 36 55 -14 152 -192 188 -343 28 -114 41 -247 46 -452 1 -48
5 -90 9 -94 17 -17 55 11 91 69 180 286 364 411 591 402 96 -3 158 -18 245
-58 169 -77 280 -160 492 -369 49 -49 95 -88 103 -88 37 0 38 55 5 185 -56
220 -158 418 -299 578 -28 32 -51 66 -51 76 0 9 17 36 39 59 73 78 105 124
117 172 7 27 11 57 9 67 -2 10 -4 28 -4 39 -1 12 -9 32 -19 44 -24 30 -42 24
-149 -56 -125 -93 -286 -165 -418 -188 -16 -3 -51 -10 -78 -15 -69 -13 -222
-6 -297 14 -106 27 -253 107 -306 166 -16 18 -15 21 30 68 25 28 47 58 47 68
1 10 3 28 4 40 3 26 -31 61 -65 66 -14 3 -47 -4 -73 -14 -43 -17 -48 -17 -54
-3 -6 16 62 88 143 152 45 34 68 76 62 114 -5 34 -34 33 -105 -5z"/>
<path d="M3559 2196 c-1 -1 -3 -46 -4 -101 -2 -107 2 -115 48 -115 31 0 29 -6
31 118 1 86 0 93 -19 97 -17 3 -51 4 -56 1z"/>
<path d="M3719 2148 c-1 -2 -2 -234 -3 -515 -1 -335 2 -514 9 -516 5 -2 82 -3
169 -2 l160 0 6 25 c4 14 4 35 -1 47 -7 20 -13 21 -133 19 -69 -1 -126 1 -127
4 0 3 -1 215 -1 473 l-1 467 -38 0 c-22 0 -40 -1 -40 -2z"/>
<path d="M492 1602 l3 -485 33 -2 c18 -1 36 3 41 9 5 6 11 172 14 370 3 197 8
360 10 362 2 2 14 -31 26 -74 13 -42 55 -178 93 -302 39 -124 77 -250 85 -280
22 -81 24 -84 82 -84 l51 -1 36 115 c20 63 61 194 91 290 30 96 66 213 80 260
14 47 26 87 28 88 2 2 4 -70 5 -160 2 -253 10 -572 14 -584 4 -11 62 -12 73
-1 7 8 7 942 0 954 -8 13 -100 11 -103 -2 -4 -14 -139 -440 -173 -545 -16 -47
-41 -127 -56 -178 -21 -68 -33 -92 -44 -90 -12 3 -53 107 -75 193 -1 6 -33
105 -70 220 -37 116 -81 253 -98 305 -17 52 -33 97 -35 100 -2 3 -29 6 -59 7
l-54 1 2 -486z"/>
<path d="M1607 1798 c-70 -9 -147 -49 -170 -88 -29 -49 -48 -110 -34 -111 7 0
30 -2 52 -5 39 -4 41 -3 60 38 11 23 32 51 47 61 38 28 116 30 166 6 45 -22
62 -53 62 -109 0 -33 -4 -40 -22 -44 -13 -3 -35 -7 -49 -10 -14 -3 -44 -8 -65
-11 -183 -27 -240 -60 -268 -156 -13 -43 -13 -55 -1 -97 43 -144 218 -186 366
-88 45 31 59 32 59 9 0 -33 17 -46 64 -48 26 -1 49 1 51 5 2 3 -2 24 -10 46
-10 28 -14 89 -13 214 1 212 -4 258 -37 310 -44 70 -126 95 -258 78z m188
-391 c-5 -77 -15 -104 -51 -139 -38 -36 -79 -50 -138 -49 -65 1 -112 30 -120
75 -15 78 21 110 150 136 80 16 137 30 161 39 2 1 1 -27 -2 -62z"/>
<path d="M2049 1792 c-15 -3 -16 -37 -17 -332 l0 -330 38 0 c22 0 42 6 47 13
4 6 8 73 8 147 l0 134 50 -1 c28 0 62 -1 77 -2 42 -2 91 -52 170 -177 l73
-114 53 0 53 0 -28 53 c-39 72 -97 154 -144 204 -21 22 -39 43 -39 45 0 3 18
10 40 17 21 6 55 26 74 44 42 40 54 90 38 167 -13 65 -49 101 -117 120 -39 11
-336 21 -376 12z m332 -89 c91 -36 80 -156 -16 -191 -39 -13 -233 -21 -252 -9
-10 6 -16 194 -7 209 9 15 234 8 275 -9z"/>
<path d="M2712 1792 l-32 -3 2 -327 3 -327 45 0 45 0 1 310 c1 171 0 317 -3
327 -5 20 -18 24 -61 20z"/>
<path d="M3066 1773 c-72 -22 -156 -109 -181 -189 -29 -92 -25 -203 10 -282
81 -182 292 -240 462 -127 42 28 58 47 88 107 78 159 48 335 -75 441 -76 65
-194 84 -304 50z m201 -70 c82 -39 125 -118 124 -227 -2 -149 -29 -204 -126
-255 -77 -41 -175 -23 -240 44 -55 57 -69 108 -63 224 6 100 33 162 87 200 55
40 151 46 218 14z"/>
<path d="M4245 1752 c-77 -26 -121 -65 -157 -140 -31 -63 -33 -73 -33 -177 0
-124 14 -170 76 -240 51 -58 105 -78 214 -77 109 0 160 18 218 78 33 34 68
107 56 118 -2 2 -25 6 -51 10 -46 7 -46 7 -75 -35 -45 -68 -74 -84 -148 -83
-53 0 -69 5 -99 28 -40 30 -71 83 -81 139 l-7 37 237 0 237 0 -6 68 c-3 37
-10 83 -16 103 -20 71 -90 144 -165 173 -41 16 -149 15 -200 -2z m199 -96 c46
-25 81 -76 90 -132 l7 -40 -195 0 c-217 0 -208 -4 -185 67 14 41 63 96 104
114 45 21 133 16 179 -9z"/>
</g>
</svg>
